<svg xmlns="http://www.w3.org/2000/svg" width="1200" height="900" viewBox="0 0 1200 900" role="img" aria-labelledby="title desc">
  <title id="title">Measurement spectrum and analysis controls</title><desc id="desc">A measurement spectrum overlaid on the Energy map, with the drag action menu and the Measurement data browser.</desc>
  <defs><radialGradient id="bg" cx="8%" cy="0%" r="90%"><stop stop-color="#123038"/><stop offset=".55" stop-color="#071216"/></radialGradient><filter id="s"><feDropShadow dy="12" stdDeviation="18" flood-opacity=".3"/></filter><style>text{font-family:Inter,"Segoe UI",sans-serif;fill:#edf7f5}.muted{fill:#8eaaa7}.tiny{font-size:10px}.small{font-size:12px}.panel{fill:#0d1d22;stroke:#254047}.control{fill:#08171b;stroke:#254047}.grid{stroke:#254047}.line{stroke:#62c9f5;stroke-width:2.5;fill:none}</style></defs>
  <rect width="1200" height="900" rx="18" fill="url(#bg)"/><g filter="url(#s)"><rect x="28" y="28" width="1144" height="548" rx="14" class="panel"/><text x="48" y="62" font-size="14" font-weight="700">Energy map</text><rect x="524" y="42" width="64" height="28" rx="7" class="control"/><text x="540" y="61" class="tiny">Legend</text><rect x="596" y="42" width="82" height="28" rx="7" class="control"/><text x="610" y="61" class="tiny">Even offsets</text><rect x="686" y="42" width="94" height="28" rx="7" class="control"/><text x="697" y="61" class="tiny">Edit plot layout</text><text x="802" y="61" class="muted tiny" font-weight="700">Data state</text><rect x="862" y="42" width="283" height="28" rx="7" class="control"/><text x="875" y="61" class="small">Normalize height · 280.0–294.0 eV</text><path d="M28 82H1172" stroke="#254047"/>
    <text x="129" y="106" fill="#77e4c8" class="small">Cursor: 285.1 eV</text><text x="965" y="106" class="muted tiny">Drag to choose an action</text><g opacity=".75"><path d="M92 145H1140M92 215H1140M92 285H1140M92 355H1140M92 425H1140" class="grid"/><path d="M92 125V442M302 125V442M512 125V442M722 125V442M932 125V442M1140 125V442" class="grid"/></g>
    <path d="M92 405 C150 402 210 398 270 395 S386 390 448 382 S528 365 575 350 S612 309 641 250 S673 155 700 184 S728 303 760 354 S842 389 916 395 S1041 397 1140 401" class="line"/><line x1="696" y1="125" x2="696" y2="442" stroke="#77e4c8" stroke-width="2"/><text x="703" y="145" fill="#77e4c8" class="small" font-weight="650">C 1s</text><rect x="670" y="122" width="67" height="320" fill="#77e4c8" opacity=".08" stroke="#77e4c8" stroke-dasharray="4 4"/>
    <g><rect x="756" y="167" width="193" height="225" rx="9" fill="#08171b" stroke="#254047"/><text x="772" y="194" class="small">Zoom both axes</text><text x="772" y="224" class="small">Zoom horizontal axis</text><text x="772" y="254" class="small">Zoom vertical axis</text><path d="M766 269H939" stroke="#254047"/><text x="772" y="296" class="small">Constant background</text><rect x="764" y="306" width="177" height="31" rx="6" fill="#77e4c8"/><text x="772" y="327" fill="#06201a" class="small" font-weight="700">Normalize height</text><text x="772" y="362" class="small">Normalize area</text></g>
    <text x="535" y="469" class="muted small">Binding energy (eV) — high to low</text><path d="M28 487H1172" stroke="#254047"/><text x="48" y="512" class="muted tiny" font-weight="700">Excitation source</text><rect x="48" y="520" width="185" height="39" rx="7" class="control"/><text x="61" y="545" font-size="14" font-weight="700">Al Kα (1486.6 eV)</text><text x="265" y="512" class="muted tiny" font-weight="700">Energy axis</text><rect x="265" y="520" width="183" height="39" rx="8" class="control"/><rect x="269" y="524" width="90" height="31" rx="5" fill="#77e4c8"/><text x="280" y="545" fill="#06201a" class="tiny" font-weight="700">Binding energy</text><text x="368" y="545" class="muted tiny">Kinetic energy</text><rect x="476" y="532" width="12" height="12" rx="2" fill="#77e4c8"/><text x="495" y="543" class="muted small">Core</text>
  </g>
  <g filter="url(#s)"><rect x="28" y="600" width="1144" height="272" rx="14" class="panel"/><text x="48" y="636" fill="#77e4c8">▾</text><text x="70" y="636" font-size="14" font-weight="700">Measurement data</text><text x="215" y="636" class="muted tiny">Select multiple spectra while preserving the XY Region / Spectrum structure</text><rect x="1042" y="615" width="103" height="32" rx="7" class="control"/><text x="1061" y="636" class="small">Add XY files</text><path d="M28 660H1172" stroke="#254047"/><rect x="48" y="678" width="1104" height="171" rx="9" fill="#08171b66" stroke="#254047"/><text x="66" y="707" fill="#77e4c8">▾</text><text x="86" y="707" class="small">data/Gr_No1_Ar1.xy (39 spectra)</text><rect x="1076" y="687" width="57" height="27" rx="6" fill="#29151b" stroke="#713846"/><text x="1088" y="705" fill="#ff9aaa" class="tiny">Delete</text><path d="M62 723H1138" stroke="#254047"/><text x="68" y="750" fill="#77e4c8">▾</text><text x="89" y="750" fill="#77e4c8" class="small">Gr_#1 (38)</text><rect x="92" y="766" width="232" height="51" rx="7" class="control"/><rect x="106" y="780" width="13" height="13" rx="2" fill="#62c9f5"/><text x="130" y="790" class="small">C1s_UHV</text><text x="130" y="806" class="muted tiny">ID 5 · C0/0 · 501 points</text><rect x="335" y="766" width="266" height="51" rx="7" class="control"/><rect x="349" y="780" width="13" height="13" rx="2" fill="none" stroke="#d88cff"/><text x="373" y="790" class="muted small">C1s_0p01mbar_Ar</text><text x="373" y="806" class="muted tiny">ID 11 · C0/0 · 501 points</text><rect x="612" y="766" width="260" height="51" rx="7" class="control"/><rect x="626" y="780" width="13" height="13" rx="2" fill="none" stroke="#ff8e77"/><text x="650" y="790" class="muted small">Si2p_UHV</text><text x="650" y="806" class="muted tiny">ID 6 · C0/0 · 241 points</text></g>
</svg>
