<svg xmlns="http://www.w3.org/2000/svg" width="1200" height="420" viewBox="0 0 1200 420" role="img" aria-labelledby="title desc">
  <title id="title">Selected element energy table</title><desc id="desc">The Binding energy values panel in Selected elements mode for carbon, oxygen, and silicon.</desc>
  <defs><radialGradient id="bg" cx="8%" cy="0%" r="90%"><stop stop-color="#123038"/><stop offset=".55" stop-color="#071216"/></radialGradient><filter id="s"><feDropShadow dy="12" stdDeviation="18" flood-opacity=".3"/></filter><style>text{font-family:Inter,"Segoe UI",sans-serif;fill:#edf7f5}.muted{fill:#8eaaa7}.tiny{font-size:11px}.small{font-size:12px}.panel{fill:#0d1d22;stroke:#254047}.line{stroke:#254047}</style></defs>
  <rect width="1200" height="420" rx="18" fill="url(#bg)"/><g filter="url(#s)"><rect x="28" y="28" width="1144" height="364" rx="14" class="panel"/><text x="48" y="63" fill="#77e4c8">▾</text><text x="70" y="63" font-size="14" font-weight="700">Binding energy values</text><text x="891" y="63" class="muted tiny">Core + Auger · 1,486.6 eV source · φ 4.5 eV</text><path d="M28 82H1172" class="line"/><rect x="48" y="99" width="258" height="40" rx="8" fill="#08171b" stroke="#254047"/><rect x="52" y="103" width="132" height="32" rx="5" fill="#77e4c8"/><text x="68" y="124" fill="#06201a" class="small" font-weight="700">Selected elements</text><text x="205" y="124" class="muted small">Energy search</text><path d="M28 157H1172" class="line"/>
    <text x="58" y="184" class="muted tiny">Element</text><text x="151" y="184" class="muted tiny">Type</text><text x="290" y="184" class="muted tiny">1s</text><text x="430" y="184" class="muted tiny">2s</text><text x="570" y="184" class="muted tiny">2p1/2</text><text x="710" y="184" class="muted tiny">2p3/2</text><text x="850" y="184" class="muted tiny">KLL</text><path d="M48 196H1152M48 246H1152M48 296H1152M48 346H1152" class="line"/>
    <text x="58" y="227" fill="#77e4c8" font-weight="750">C</text><text x="151" y="227" class="small">Core</text><text x="252" y="227" font-size="13" font-weight="650">285.0 eV</text><text x="430" y="227" class="muted">—</text><text x="570" y="227" class="muted">—</text><text x="710" y="227" class="muted">—</text>
    <text x="58" y="277" fill="#62c9f5" font-weight="750">O</text><text x="151" y="277" class="small">Core</text><text x="252" y="277" font-size="13" font-weight="650">531.0 eV</text><text x="397" y="277" font-size="13" font-weight="650">23.0 eV</text><text x="570" y="277" class="muted">—</text><text x="710" y="277" class="muted">—</text>
    <text x="58" y="327" fill="#d88cff" font-weight="750">Si</text><text x="151" y="327" class="small">Core</text><text x="250" y="327" fill="#ff6f7f" font-size="13" font-weight="650">1839.0 eV</text><text x="395" y="327" font-size="13" font-weight="650">149.7 eV</text><text x="548" y="327" font-size="13" font-weight="650">99.8 eV</text><text x="688" y="327" font-size="13" font-weight="650">99.4 eV</text>
    <text x="48" y="374" fill="#ff6f7f" class="tiny">● Red: Binding energy exceeds the excitation photon energy</text>
  </g>
</svg>
