<svg xmlns="http://www.w3.org/2000/svg" width="1200" height="500" viewBox="0 0 1200 500" role="img" aria-labelledby="title desc">
  <title id="title">Energy search mode</title><desc id="desc">The energy table searching for peaks within 0.5 eV of 285.0 eV.</desc>
  <defs><radialGradient id="bg" cx="8%" cy="0%" r="90%"><stop stop-color="#123038"/><stop offset=".55" stop-color="#071216"/></radialGradient><filter id="s"><feDropShadow dy="12" stdDeviation="18" flood-opacity=".3"/></filter><style>text{font-family:Inter,"Segoe UI",sans-serif;fill:#edf7f5}.muted{fill:#8eaaa7}.tiny{font-size:10px}.small{font-size:12px}.panel{fill:#0d1d22;stroke:#254047}.control{fill:#08171b;stroke:#254047}.line{stroke:#254047}</style></defs>
  <rect width="1200" height="500" rx="18" fill="url(#bg)"/><g filter="url(#s)"><rect x="28" y="28" width="1144" height="444" rx="14" class="panel"/><text x="48" y="62" fill="#77e4c8">▾</text><text x="70" y="62" font-size="14" font-weight="700">Binding energy values</text><text x="969" y="62" class="muted tiny">Core · 1,486.6 eV source · φ 4.5 eV</text><path d="M28 82H1172" class="line"/>
    <rect x="48" y="101" width="248" height="40" rx="8" class="control"/><text x="64" y="126" class="muted small">Selected elements</text><rect x="171" y="105" width="121" height="32" rx="5" fill="#77e4c8"/><text x="187" y="126" fill="#06201a" class="small" font-weight="700">Energy search</text>
    <text x="315" y="104" class="muted tiny" font-weight="700">Peak energy</text><rect x="315" y="111" width="91" height="36" rx="7" class="control"/><text x="327" y="134" font-size="13">285.0</text><text x="414" y="134" class="muted tiny">eV</text><line x1="443" y1="129" x2="545" y2="129" stroke="#426069" stroke-width="3"/><circle cx="463" cy="129" r="7" fill="#77e4c8"/>
    <text x="572" y="104" class="muted tiny" font-weight="700">Search width (±)</text><rect x="572" y="111" width="72" height="36" rx="7" class="control"/><text x="584" y="134" font-size="13">0.5</text><text x="652" y="134" class="muted tiny">eV</text><line x1="679" y1="129" x2="761" y2="129" stroke="#426069" stroke-width="3"/><circle cx="687" cy="129" r="7" fill="#77e4c8"/>
    <text x="786" y="104" class="muted tiny" font-weight="700">Excitation order</text><rect x="786" y="111" width="260" height="36" rx="8" class="control"/><rect x="790" y="115" width="113" height="28" rx="5" fill="#77e4c8"/><text x="801" y="134" fill="#06201a" class="tiny" font-weight="700">First order only</text><text x="917" y="134" class="muted tiny">Include higher orders</text><text x="1058" y="132" class="muted tiny">285.0 ± 0.5 eV · 1 match</text><path d="M28 166H1172" class="line"/>
    <text x="58" y="196" class="muted tiny">Element</text><text x="184" y="196" class="muted tiny">Type</text><text x="322" y="196" class="muted tiny">Level / transition</text><text x="512" y="196" class="muted tiny">Excitation</text><text x="747" y="196" class="muted tiny">Energy</text><text x="935" y="196" class="muted tiny">Difference</text><path d="M48 209H1152M48 266H1152" class="line"/>
    <text x="58" y="244" fill="#77e4c8" font-size="16" font-weight="750">C</text><text x="184" y="244" class="small">Core</text><text x="322" y="244" class="small">1s</text><text x="512" y="244" class="small">Order 1 (1486.6 eV)</text><text x="747" y="244" font-size="13" font-weight="650">285.0 eV</text><text x="935" y="244" class="small">+0.0 eV</text>
    <text x="48" y="294" fill="#ff6f7f" class="tiny">Searching binding energy · Core uses first-order excitation; Auger uses order-independent kinetic energy</text>
    <rect x="48" y="331" width="1104" height="101" rx="9" fill="#08171b" stroke="#254047"/><text x="69" y="358" fill="#77e4c8" font-size="13" font-weight="700">How to read this result</text><text x="69" y="384" class="muted small">The C 1s reference value is inside 285.0 ± 0.5 eV. Treat it as a candidate, then compare the sample composition,</text><text x="69" y="405" class="muted small">other peaks, chemical shifts, charging, and measurement conditions before assigning the element.</text>
  </g>
</svg>
